<svg width="261" height="103" viewBox="0 0 261 103" fill="none" xmlns="http://www.w3.org/2000/svg">
<g clip-path="url(#clip0)">
<path d="M261 39.1V95.9C261 99.805 257.85 103 254 103H226C222.15 103 219 99.805 219 95.9V39.1C219 35.195 222.15 32 226 32H254C257.85 32 261 35.195 261 39.1Z" fill="#3991E3"/>
<path d="M226 99.45H254C255.934 99.45 257.5 97.8614 257.5 95.9V39.1C257.5 37.1386 255.934 35.55 254 35.55H252.25C251.284 35.55 250.5 36.3452 250.5 37.325C250.5 39.2864 248.934 40.875 247 40.875H233C231.066 40.875 229.5 39.2864 229.5 37.325C229.5 36.3452 228.716 35.55 227.75 35.55H226C224.066 35.55 222.5 37.1386 222.5 39.1V95.9C222.5 97.8614 224.066 99.45 226 99.45Z" fill="#E0ECFF"/>
<rect y="103" width="81" height="58" rx="3" transform="rotate(-90 0 103)" fill="#3991E3"/>
<rect x="4" y="99" width="73" height="50" rx="2" transform="rotate(-90 4 99)" fill="#E0ECFF"/>
<path d="M29.1154 100C28.8196 100 28.5359 100.118 28.3267 100.327C28.1175 100.536 28 100.82 28 101.115C28 101.411 28.1175 101.695 28.3267 101.904C28.5359 102.113 28.8196 102.231 29.1154 102.231C29.4112 102.231 29.6949 102.113 29.9041 101.904C30.1133 101.695 30.2308 101.411 30.2308 101.115C30.2308 100.82 30.1133 100.536 29.9041 100.327C29.6949 100.118 29.4112 100 29.1154 100Z" fill="#E0ECFF"/>
<rect x="66.1353" width="144.865" height="95.6842" rx="3" fill="#3991E3"/>
<rect x="72.1353" y="6" width="132.865" height="83.6842" rx="2" fill="#E0ECFF"/>
<path d="M140 3C140 2.73478 139.895 2.48043 139.707 2.29289C139.52 2.10536 139.265 2 139 2C138.735 2 138.48 2.10536 138.293 2.29289C138.105 2.48043 138 2.73478 138 3C138 3.26522 138.105 3.51957 138.293 3.70711C138.48 3.89464 138.735 4 139 4C139.265 4 139.52 3.89464 139.707 3.70711C139.895 3.51957 140 3.26522 140 3Z" fill="#E0ECFF"/>
<rect x="66" y="96" width="145" height="7" rx="3" fill="#3991E3"/>
</g>
<defs>
<clipPath id="clip0">
<rect width="261" height="103" fill="white"/>
</clipPath>
</defs>
</svg>
